# xmcd
#
# Track frame offsets:
#	150
#	19060
#	36307
#	53302
#	72212
#	89322
#	108537
#	123492
#	141472
#	156692
#	175245
#	192380
#
# Disc length: 2816 seconds
#
# Revision: 1
# Processed by: cddbd v1.4PL0 Copyright (c) Steve Scherf et al.
# Submitted via: audiograbber 1.82.02
#
DISCID=ac0afe0c
DTITLE=Jimmy WAYNE - Jimmy Wayne
DYEAR=2003
DGENRE=Country
TTITLE0=After you
TTITLE1=Are you ever gonna love me
TTITLE2=Stay gone
TTITLE3=Trespassin'
TTITLE4=Paper angels
TTITLE5=You are
TTITLE6=She runs
TTITLE7=Just a dream
TTITLE8=Blue and brown
TTITLE9=I love you this much
TTITLE10=You're the one I'm talking to 
TTITLE11=The rabbit
EXTD=
EXTT0=
EXTT1=
EXTT2=
EXTT3=
EXTT4=
EXTT5=
EXTT6=
EXTT7=
EXTT8=
EXTT9=
EXTT10=
EXTT11=
PLAYORDER=
